<svg width="433" height="71" viewBox="0 0 433 71" fill="none" xmlns="http://www.w3.org/2000/svg">
<g filter="url(#filter0_d_11_60)">
<mask id="path-1-outside-1_11_60" maskUnits="userSpaceOnUse" x="4" y="17" width="425" height="38" fill="black">
<rect fill="white" x="4" y="17" width="425" height="38"/>
<path d="M6.31 53V23.028L5.72 18.308H19.998L30.382 38.958L41.002 18.308H54.513V53H43.244V33.117H42.595L40.117 39.489L35.81 49.46H25.072L20.588 39.489L18.169 33.117H17.579V53H6.31ZM77.718 53C73.5486 53 70.5003 52.0757 68.573 50.227C66.685 48.339 65.741 45.3497 65.741 41.259V29.99C65.741 25.978 66.685 23.028 68.573 21.14C70.461 19.252 73.5093 18.308 77.718 18.308H94.946C99.076 18.308 102.085 19.252 103.973 21.14C105.9 23.028 106.864 25.978 106.864 29.99V41.259C106.864 45.3497 105.9 48.339 103.973 50.227C102.046 52.0757 99.0366 53 94.946 53H77.718ZM81.789 44.976H90.934C94.002 44.976 95.536 43.5797 95.536 40.787V30.462C95.536 27.7087 94.002 26.332 90.934 26.332H81.789C80.2156 26.332 79.0356 26.6467 78.249 27.276C77.4623 27.9053 77.069 28.9673 77.069 30.462V40.787C77.069 42.2423 77.4623 43.3043 78.249 43.973C79.0356 44.6417 80.2156 44.976 81.789 44.976ZM129.161 53.59C125.228 53.59 122.238 52.6657 120.193 50.817C118.187 48.9683 117.184 45.979 117.184 41.849V18.308H128.689V40.787C128.689 42.6357 129.141 43.8747 130.046 44.504C130.951 45.1333 132.072 45.448 133.409 45.448H141.02C142.279 45.448 143.38 45.1333 144.324 44.504C145.268 43.8353 145.74 42.5963 145.74 40.787V18.308H157.068V41.849C157.068 45.979 156.065 48.9683 154.059 50.817C152.092 52.6657 149.123 53.59 145.15 53.59H129.161ZM168.553 53V23.028L167.963 18.308H178.819L195.457 35.182L197.758 37.778H198.407V18.308H209.735V53H199.882L182.772 35.949L180.471 33.176H179.881V53H168.553ZM232.047 53V26.273H218.005V18.249H257.712V26.273H243.493V53H232.047ZM311.937 53V18.308H323.265V53H311.937ZM335.629 53V23.028L335.039 18.308H345.895L362.533 35.182L364.834 37.778H365.483V18.308H376.811V53H366.958L349.848 35.949L347.547 33.176H346.957V53H335.629ZM395.288 53C392.613 53 390.646 52.882 389.388 52.646C388.129 52.41 387.5 52.1347 387.5 51.82L391.04 44.209C391.944 44.3663 393.813 44.5237 396.645 44.681C399.477 44.799 403.154 44.858 407.678 44.858H412.339C413.715 44.858 414.64 44.6613 415.112 44.268C415.584 43.8747 415.82 43.3043 415.82 42.557V41.967C415.82 41.023 415.584 40.374 415.112 40.02C414.64 39.666 413.715 39.489 412.339 39.489H398.828C394.855 39.489 391.964 38.7613 390.155 37.306C388.345 35.8113 387.441 33.3923 387.441 30.049V27.925C387.441 26.1943 387.755 24.6013 388.385 23.146C389.053 21.6907 390.174 20.5303 391.748 19.665C393.321 18.7603 395.484 18.308 398.238 18.308H417.826C420.225 18.308 422.211 18.4457 423.785 18.721C425.397 18.9963 426.204 19.2913 426.204 19.606L424.434 26.922C423.332 26.804 421.248 26.686 418.18 26.568C415.151 26.4107 411.296 26.332 406.616 26.332L402.368 26.273C401.148 26.273 400.283 26.45 399.772 26.804C399.26 27.1187 398.985 27.7283 398.946 28.633V29.046C398.946 29.9507 399.221 30.58 399.772 30.934C400.322 31.288 401.207 31.465 402.427 31.465H415.407C417.924 31.465 420.068 31.7207 421.838 32.232C423.608 32.7433 424.965 33.6873 425.909 35.064C426.853 36.4013 427.325 38.3877 427.325 41.023V43.147C427.325 46.097 426.558 48.4767 425.024 50.286C423.529 52.0953 420.913 53 417.177 53H395.288Z"/>
</mask>
<path d="M6.31 53V23.028L5.72 18.308H19.998L30.382 38.958L41.002 18.308H54.513V53H43.244V33.117H42.595L40.117 39.489L35.81 49.46H25.072L20.588 39.489L18.169 33.117H17.579V53H6.31ZM77.718 53C73.5486 53 70.5003 52.0757 68.573 50.227C66.685 48.339 65.741 45.3497 65.741 41.259V29.99C65.741 25.978 66.685 23.028 68.573 21.14C70.461 19.252 73.5093 18.308 77.718 18.308H94.946C99.076 18.308 102.085 19.252 103.973 21.14C105.9 23.028 106.864 25.978 106.864 29.99V41.259C106.864 45.3497 105.9 48.339 103.973 50.227C102.046 52.0757 99.0366 53 94.946 53H77.718ZM81.789 44.976H90.934C94.002 44.976 95.536 43.5797 95.536 40.787V30.462C95.536 27.7087 94.002 26.332 90.934 26.332H81.789C80.2156 26.332 79.0356 26.6467 78.249 27.276C77.4623 27.9053 77.069 28.9673 77.069 30.462V40.787C77.069 42.2423 77.4623 43.3043 78.249 43.973C79.0356 44.6417 80.2156 44.976 81.789 44.976ZM129.161 53.59C125.228 53.59 122.238 52.6657 120.193 50.817C118.187 48.9683 117.184 45.979 117.184 41.849V18.308H128.689V40.787C128.689 42.6357 129.141 43.8747 130.046 44.504C130.951 45.1333 132.072 45.448 133.409 45.448H141.02C142.279 45.448 143.38 45.1333 144.324 44.504C145.268 43.8353 145.74 42.5963 145.74 40.787V18.308H157.068V41.849C157.068 45.979 156.065 48.9683 154.059 50.817C152.092 52.6657 149.123 53.59 145.15 53.59H129.161ZM168.553 53V23.028L167.963 18.308H178.819L195.457 35.182L197.758 37.778H198.407V18.308H209.735V53H199.882L182.772 35.949L180.471 33.176H179.881V53H168.553ZM232.047 53V26.273H218.005V18.249H257.712V26.273H243.493V53H232.047ZM311.937 53V18.308H323.265V53H311.937ZM335.629 53V23.028L335.039 18.308H345.895L362.533 35.182L364.834 37.778H365.483V18.308H376.811V53H366.958L349.848 35.949L347.547 33.176H346.957V53H335.629ZM395.288 53C392.613 53 390.646 52.882 389.388 52.646C388.129 52.41 387.5 52.1347 387.5 51.82L391.04 44.209C391.944 44.3663 393.813 44.5237 396.645 44.681C399.477 44.799 403.154 44.858 407.678 44.858H412.339C413.715 44.858 414.64 44.6613 415.112 44.268C415.584 43.8747 415.82 43.3043 415.82 42.557V41.967C415.82 41.023 415.584 40.374 415.112 40.02C414.64 39.666 413.715 39.489 412.339 39.489H398.828C394.855 39.489 391.964 38.7613 390.155 37.306C388.345 35.8113 387.441 33.3923 387.441 30.049V27.925C387.441 26.1943 387.755 24.6013 388.385 23.146C389.053 21.6907 390.174 20.5303 391.748 19.665C393.321 18.7603 395.484 18.308 398.238 18.308H417.826C420.225 18.308 422.211 18.4457 423.785 18.721C425.397 18.9963 426.204 19.2913 426.204 19.606L424.434 26.922C423.332 26.804 421.248 26.686 418.18 26.568C415.151 26.4107 411.296 26.332 406.616 26.332L402.368 26.273C401.148 26.273 400.283 26.45 399.772 26.804C399.26 27.1187 398.985 27.7283 398.946 28.633V29.046C398.946 29.9507 399.221 30.58 399.772 30.934C400.322 31.288 401.207 31.465 402.427 31.465H415.407C417.924 31.465 420.068 31.7207 421.838 32.232C423.608 32.7433 424.965 33.6873 425.909 35.064C426.853 36.4013 427.325 38.3877 427.325 41.023V43.147C427.325 46.097 426.558 48.4767 425.024 50.286C423.529 52.0953 420.913 53 417.177 53H395.288Z" fill="#D54A1E"/>
<path d="M6.31 53H5.31V54H6.31V53ZM6.31 23.028H7.31V22.9657L7.30228 22.904L6.31 23.028ZM5.72 18.308V17.308H4.58722L4.72772 18.432L5.72 18.308ZM19.998 18.308L20.8914 17.8587L20.6145 17.308H19.998V18.308ZM30.382 38.958L29.4886 39.4073L30.372 41.164L31.2713 39.4153L30.382 38.958ZM41.002 18.308V17.308H40.3918L40.1127 17.8507L41.002 18.308ZM54.513 18.308H55.513V17.308H54.513V18.308ZM54.513 53V54H55.513V53H54.513ZM43.244 53H42.244V54H43.244V53ZM43.244 33.117H44.244V32.117H43.244V33.117ZM42.595 33.117V32.117H41.9109L41.663 32.7546L42.595 33.117ZM40.117 39.489L41.035 39.8855L41.0423 39.8686L41.049 39.8514L40.117 39.489ZM35.81 49.46V50.46H36.4674L36.728 49.8565L35.81 49.46ZM25.072 49.46L24.16 49.8701L24.4252 50.46H25.072V49.46ZM20.588 39.489L19.6531 39.8439L19.6637 39.8719L19.676 39.8991L20.588 39.489ZM18.169 33.117L19.1039 32.7621L18.859 32.117H18.169V33.117ZM17.579 33.117V32.117H16.579V33.117H17.579ZM17.579 53V54H18.579V53H17.579ZM7.31 53V23.028H5.31V53H7.31ZM7.30228 22.904L6.71228 18.184L4.72772 18.432L5.31772 23.152L7.30228 22.904ZM5.72 19.308H19.998V17.308H5.72V19.308ZM19.1046 18.7573L29.4886 39.4073L31.2754 38.5087L20.8914 17.8587L19.1046 18.7573ZM31.2713 39.4153L41.8913 18.7653L40.1127 17.8507L29.4927 38.5007L31.2713 39.4153ZM41.002 19.308H54.513V17.308H41.002V19.308ZM53.513 18.308V53H55.513V18.308H53.513ZM54.513 52H43.244V54H54.513V52ZM44.244 53V33.117H42.244V53H44.244ZM43.244 32.117H42.595V34.117H43.244V32.117ZM41.663 32.7546L39.185 39.1266L41.049 39.8514L43.527 33.4794L41.663 32.7546ZM39.199 39.0925L34.892 49.0635L36.728 49.8565L41.035 39.8855L39.199 39.0925ZM35.81 48.46H25.072V50.46H35.81V48.46ZM25.984 49.0499L21.5 39.0789L19.676 39.8991L24.16 49.8701L25.984 49.0499ZM21.5229 39.1341L19.1039 32.7621L17.2341 33.4719L19.6531 39.8439L21.5229 39.1341ZM18.169 32.117H17.579V34.117H18.169V32.117ZM16.579 33.117V53H18.579V33.117H16.579ZM17.579 52H6.31V54H17.579V52ZM68.573 50.227L67.8659 50.9341L67.8732 50.9415L67.8808 50.9487L68.573 50.227ZM68.573 21.14L67.8659 20.4329L68.573 21.14ZM103.973 21.14L103.266 21.8471L103.273 21.8544L103.973 21.14ZM103.973 50.227L104.665 50.9487L104.673 50.9414L103.973 50.227ZM78.249 27.276L77.6243 26.4951L78.249 27.276ZM78.249 43.973L77.6013 44.7349L78.249 43.973ZM77.718 52C73.6667 52 70.9253 51.0976 69.2652 49.5053L67.8808 50.9487C70.0753 53.0537 73.4305 54 77.718 54V52ZM69.2801 49.5199C67.6588 47.8986 66.741 45.2227 66.741 41.259H64.741C64.741 45.4766 65.7111 48.7794 67.8659 50.9341L69.2801 49.5199ZM66.741 41.259V29.99H64.741V41.259H66.741ZM66.741 29.99C66.741 26.1116 67.6557 23.4715 69.2801 21.8471L67.8659 20.4329C65.7142 22.5845 64.741 25.8444 64.741 29.99H66.741ZM69.2801 21.8471C70.8969 20.2303 73.6265 19.308 77.718 19.308V17.308C73.3921 17.308 70.025 18.2737 67.8659 20.4329L69.2801 21.8471ZM77.718 19.308H94.946V17.308H77.718V19.308ZM94.946 19.308C98.9523 19.308 101.646 20.2274 103.266 21.8471L104.68 20.4329C102.524 18.2766 99.1997 17.308 94.946 17.308V19.308ZM103.273 21.8544C104.932 23.4794 105.864 26.1166 105.864 29.99H107.864C107.864 25.8394 106.869 22.5766 104.673 20.4256L103.273 21.8544ZM105.864 29.99V41.259H107.864V29.99H105.864ZM105.864 41.259C105.864 45.2178 104.929 47.8908 103.273 49.5126L104.673 50.9414C106.872 48.7872 107.864 45.4815 107.864 41.259H105.864ZM103.281 49.5053C101.618 51.1005 98.9122 52 94.946 52V54C99.1611 54 102.474 53.0509 104.665 50.9487L103.281 49.5053ZM94.946 52H77.718V54H94.946V52ZM81.789 45.976H90.934V43.976H81.789V45.976ZM90.934 45.976C92.6001 45.976 94.0363 45.5989 95.0586 44.6683C96.0988 43.7214 96.536 42.363 96.536 40.787H94.536C94.536 42.0037 94.2061 42.7397 93.7123 43.1892C93.2007 43.655 92.3359 43.976 90.934 43.976V45.976ZM96.536 40.787V30.462H94.536V40.787H96.536ZM96.536 30.462C96.536 28.9015 96.0963 27.5562 95.0534 26.6203C94.0311 25.7028 92.597 25.332 90.934 25.332V27.332C92.3389 27.332 93.2059 27.6496 93.7176 28.1087C94.2086 28.5495 94.536 29.2691 94.536 30.462H96.536ZM90.934 25.332H81.789V27.332H90.934V25.332ZM81.789 25.332C80.1088 25.332 78.6636 25.6637 77.6243 26.4951L78.8737 28.0569C79.4077 27.6297 80.3225 27.332 81.789 27.332V25.332ZM77.6243 26.4951C76.5032 27.392 76.069 28.8148 76.069 30.462H78.069C78.069 29.1199 78.4214 28.4187 78.8737 28.0569L77.6243 26.4951ZM76.069 30.462V40.787H78.069V30.462H76.069ZM76.069 40.787C76.069 42.4108 76.5109 43.808 77.6013 44.7349L78.8966 43.2111C78.4138 42.8006 78.069 42.0739 78.069 40.787H76.069ZM77.6013 44.7349C78.6426 45.62 80.0976 45.976 81.789 45.976V43.976C80.3337 43.976 79.4287 43.6633 78.8966 43.2111L77.6013 44.7349ZM120.193 50.817L119.515 51.5524L119.522 51.5589L120.193 50.817ZM117.184 18.308V17.308H116.184V18.308H117.184ZM128.689 18.308H129.689V17.308H128.689V18.308ZM130.046 44.504L129.475 45.3249L130.046 44.504ZM144.324 44.504L144.879 45.336L144.89 45.3282L144.902 45.32L144.324 44.504ZM145.74 18.308V17.308H144.74V18.308H145.74ZM157.068 18.308H158.068V17.308H157.068V18.308ZM154.059 50.817L153.381 50.0816L153.374 50.0884L154.059 50.817ZM129.161 52.59C125.37 52.59 122.66 51.6986 120.863 50.0751L119.522 51.5589C121.817 53.6327 125.085 54.59 129.161 54.59V52.59ZM120.871 50.0816C119.156 48.5014 118.184 45.8428 118.184 41.849H116.184C116.184 46.1152 117.218 49.4353 119.515 51.5524L120.871 50.0816ZM118.184 41.849V18.308H116.184V41.849H118.184ZM117.184 19.308H128.689V17.308H117.184V19.308ZM127.689 18.308V40.787H129.689V18.308H127.689ZM127.689 40.787C127.689 42.741 128.16 44.4102 129.475 45.3249L130.617 43.6831C130.123 43.3391 129.689 42.5303 129.689 40.787H127.689ZM129.475 45.3249C130.58 46.0938 131.912 46.448 133.409 46.448V44.448C132.231 44.448 131.321 44.1729 130.617 43.6831L129.475 45.3249ZM133.409 46.448H141.02V44.448H133.409V46.448ZM141.02 46.448C142.454 46.448 143.753 46.0867 144.879 45.336L143.769 43.6719C143.007 44.18 142.104 44.448 141.02 44.448V46.448ZM144.902 45.32C146.234 44.3766 146.74 42.7324 146.74 40.787H144.74C144.74 42.4603 144.302 43.2941 143.746 43.688L144.902 45.32ZM146.74 40.787V18.308H144.74V40.787H146.74ZM145.74 19.308H157.068V17.308H145.74V19.308ZM156.068 18.308V41.849H158.068V18.308H156.068ZM156.068 41.849C156.068 45.8428 155.096 48.5014 153.381 50.0816L154.737 51.5524C157.034 49.4353 158.068 46.1152 158.068 41.849H156.068ZM153.374 50.0884C151.664 51.6957 148.987 52.59 145.15 52.59V54.59C149.259 54.59 152.52 53.6356 154.744 51.5456L153.374 50.0884ZM145.15 52.59H129.161V54.59H145.15V52.59ZM168.553 53H167.553V54H168.553V53ZM168.553 23.028H169.553V22.9657L169.545 22.904L168.553 23.028ZM167.963 18.308V17.308H166.83L166.971 18.432L167.963 18.308ZM178.819 18.308L179.531 17.6059L179.237 17.308H178.819V18.308ZM195.457 35.182L196.205 34.5187L196.188 34.4988L196.169 34.4799L195.457 35.182ZM197.758 37.778L197.01 38.4413L197.308 38.778H197.758V37.778ZM198.407 37.778V38.778H199.407V37.778H198.407ZM198.407 18.308V17.308H197.407V18.308H198.407ZM209.735 18.308H210.735V17.308H209.735V18.308ZM209.735 53V54H210.735V53H209.735ZM199.882 53L199.176 53.7083L199.469 54H199.882V53ZM182.772 35.949L182.003 36.5876L182.033 36.624L182.066 36.6573L182.772 35.949ZM180.471 33.176L181.241 32.5374L180.941 32.176H180.471V33.176ZM179.881 33.176V32.176H178.881V33.176H179.881ZM179.881 53V54H180.881V53H179.881ZM169.553 53V23.028H167.553V53H169.553ZM169.545 22.904L168.955 18.184L166.971 18.432L167.561 23.152L169.545 22.904ZM167.963 19.308H178.819V17.308H167.963V19.308ZM178.107 19.0101L194.745 35.8841L196.169 34.4799L179.531 17.6059L178.107 19.0101ZM194.709 35.8453L197.01 38.4413L198.506 37.1147L196.205 34.5187L194.709 35.8453ZM197.758 38.778H198.407V36.778H197.758V38.778ZM199.407 37.778V18.308H197.407V37.778H199.407ZM198.407 19.308H209.735V17.308H198.407V19.308ZM208.735 18.308V53H210.735V18.308H208.735ZM209.735 52H199.882V54H209.735V52ZM200.588 52.2917L183.478 35.2407L182.066 36.6573L199.176 53.7083L200.588 52.2917ZM183.542 35.3104L181.241 32.5374L179.702 33.8146L182.003 36.5876L183.542 35.3104ZM180.471 32.176H179.881V34.176H180.471V32.176ZM178.881 33.176V53H180.881V33.176H178.881ZM179.881 52H168.553V54H179.881V52ZM232.047 53H231.047V54H232.047V53ZM232.047 26.273H233.047V25.273H232.047V26.273ZM218.005 26.273H217.005V27.273H218.005V26.273ZM218.005 18.249V17.249H217.005V18.249H218.005ZM257.712 18.249H258.712V17.249H257.712V18.249ZM257.712 26.273V27.273H258.712V26.273H257.712ZM243.493 26.273V25.273H242.493V26.273H243.493ZM243.493 53V54H244.493V53H243.493ZM233.047 53V26.273H231.047V53H233.047ZM232.047 25.273H218.005V27.273H232.047V25.273ZM219.005 26.273V18.249H217.005V26.273H219.005ZM218.005 19.249H257.712V17.249H218.005V19.249ZM256.712 18.249V26.273H258.712V18.249H256.712ZM257.712 25.273H243.493V27.273H257.712V25.273ZM242.493 26.273V53H244.493V26.273H242.493ZM243.493 52H232.047V54H243.493V52ZM311.937 53H310.937V54H311.937V53ZM311.937 18.308V17.308H310.937V18.308H311.937ZM323.265 18.308H324.265V17.308H323.265V18.308ZM323.265 53V54H324.265V53H323.265ZM312.937 53V18.308H310.937V53H312.937ZM311.937 19.308H323.265V17.308H311.937V19.308ZM322.265 18.308V53H324.265V18.308H322.265ZM323.265 52H311.937V54H323.265V52ZM335.629 53H334.629V54H335.629V53ZM335.629 23.028H336.629V22.9657L336.621 22.904L335.629 23.028ZM335.039 18.308V17.308H333.906L334.047 18.432L335.039 18.308ZM345.895 18.308L346.607 17.6059L346.313 17.308H345.895V18.308ZM362.533 35.182L363.281 34.5187L363.264 34.4988L363.245 34.4799L362.533 35.182ZM364.834 37.778L364.086 38.4413L364.384 38.778H364.834V37.778ZM365.483 37.778V38.778H366.483V37.778H365.483ZM365.483 18.308V17.308H364.483V18.308H365.483ZM376.811 18.308H377.811V17.308H376.811V18.308ZM376.811 53V54H377.811V53H376.811ZM366.958 53L366.252 53.7083L366.545 54H366.958V53ZM349.848 35.949L349.079 36.5876L349.109 36.624L349.142 36.6573L349.848 35.949ZM347.547 33.176L348.317 32.5374L348.017 32.176H347.547V33.176ZM346.957 33.176V32.176H345.957V33.176H346.957ZM346.957 53V54H347.957V53H346.957ZM336.629 53V23.028H334.629V53H336.629ZM336.621 22.904L336.031 18.184L334.047 18.432L334.637 23.152L336.621 22.904ZM335.039 19.308H345.895V17.308H335.039V19.308ZM345.183 19.0101L361.821 35.8841L363.245 34.4799L346.607 17.6059L345.183 19.0101ZM361.785 35.8453L364.086 38.4413L365.582 37.1147L363.281 34.5187L361.785 35.8453ZM364.834 38.778H365.483V36.778H364.834V38.778ZM366.483 37.778V18.308H364.483V37.778H366.483ZM365.483 19.308H376.811V17.308H365.483V19.308ZM375.811 18.308V53H377.811V18.308H375.811ZM376.811 52H366.958V54H376.811V52ZM367.664 52.2917L350.554 35.2407L349.142 36.6573L366.252 53.7083L367.664 52.2917ZM350.618 35.3104L348.317 32.5374L346.778 33.8146L349.079 36.5876L350.618 35.3104ZM347.547 32.176H346.957V34.176H347.547V32.176ZM345.957 33.176V53H347.957V33.176H345.957ZM346.957 52H335.629V54H346.957V52ZM387.5 51.82L386.593 51.3983L386.5 51.5988V51.82H387.5ZM391.04 44.209L391.211 43.2238L390.456 43.0925L390.133 43.7873L391.04 44.209ZM396.645 44.681L396.589 45.6796L396.603 45.6801L396.645 44.681ZM415.112 44.268L415.752 45.0362L415.112 44.268ZM415.112 40.02L415.712 39.22V39.22L415.112 40.02ZM390.155 37.306L389.518 38.077L389.528 38.0852L390.155 37.306ZM388.385 23.146L387.476 22.7285L387.471 22.7387L387.467 22.7491L388.385 23.146ZM391.748 19.665L392.23 20.5412L392.238 20.5366L392.246 20.5319L391.748 19.665ZM423.785 18.721L423.612 19.706L423.616 19.7067L423.785 18.721ZM426.204 19.606L427.176 19.8411L427.204 19.7252V19.606H426.204ZM424.434 26.922L424.327 27.9163L425.199 28.0098L425.406 27.1571L424.434 26.922ZM418.18 26.568L418.128 27.5667L418.141 27.5673L418.18 26.568ZM406.616 26.332L406.602 27.332H406.616V26.332ZM402.368 26.273L402.382 25.273H402.368V26.273ZM399.772 26.804L400.296 27.6557L400.319 27.6415L400.341 27.6262L399.772 26.804ZM398.946 28.633L397.947 28.5896L397.946 28.6113V28.633H398.946ZM399.772 30.934L400.313 30.0928L399.772 30.934ZM421.838 32.232L422.115 31.2713L421.838 32.232ZM425.909 35.064L425.084 35.6296L425.092 35.6407L425.909 35.064ZM425.024 50.286L424.261 49.6393L424.253 49.6491L425.024 50.286ZM395.288 52C392.623 52 390.734 51.8811 389.572 51.6631L389.203 53.6289C390.558 53.8829 392.603 54 395.288 54V52ZM389.572 51.6631C388.965 51.5493 388.582 51.4379 388.373 51.3463C388.265 51.2994 388.263 51.2828 388.302 51.3191C388.347 51.362 388.5 51.5317 388.5 51.82H386.5C386.5 52.2656 386.731 52.5878 386.934 52.7782C387.13 52.962 387.364 53.0879 387.571 53.1787C387.991 53.3624 388.552 53.5067 389.203 53.6289L389.572 51.6631ZM388.406 52.2417L391.947 44.6307L390.133 43.7873L386.593 51.3983L388.406 52.2417ZM390.868 45.1942C391.841 45.3633 393.768 45.5227 396.589 45.6795L396.7 43.6825C393.857 43.5246 392.048 43.3694 391.211 43.2238L390.868 45.1942ZM396.603 45.6801C399.455 45.7989 403.148 45.858 407.678 45.858V43.858C403.161 43.858 399.499 43.7991 396.686 43.6819L396.603 45.6801ZM407.678 45.858H412.339V43.858H407.678V45.858ZM412.339 45.858C413.068 45.858 413.719 45.8064 414.273 45.6886C414.816 45.573 415.342 45.3781 415.752 45.0362L414.472 43.4998C414.41 43.5512 414.237 43.6513 413.856 43.7324C413.486 43.8112 412.986 43.858 412.339 43.858V45.858ZM415.752 45.0362C416.501 44.4119 416.82 43.5306 416.82 42.557H414.82C414.82 43.0781 414.666 43.3374 414.472 43.4998L415.752 45.0362ZM416.82 42.557V41.967H414.82V42.557H416.82ZM416.82 41.967C416.82 40.8988 416.557 39.8536 415.712 39.22L414.512 40.82C414.611 40.8944 414.82 41.1472 414.82 41.967H416.82ZM415.712 39.22C415.303 38.9133 414.785 38.7415 414.253 38.6396C413.707 38.5352 413.064 38.489 412.339 38.489V40.489C412.99 40.489 413.498 40.5313 413.876 40.6039C414.269 40.679 414.449 40.7727 414.512 40.82L415.712 39.22ZM412.339 38.489H398.828V40.489H412.339V38.489ZM398.828 38.489C394.936 38.489 392.325 37.7684 390.782 36.5268L389.528 38.0852C391.603 39.7543 394.774 40.489 398.828 40.489V38.489ZM390.792 36.535C389.298 35.3008 388.441 33.2258 388.441 30.049H386.441C386.441 33.5589 387.393 36.3219 389.518 38.077L390.792 36.535ZM388.441 30.049V27.925H386.441V30.049H388.441ZM388.441 27.925C388.441 26.3183 388.732 24.8619 389.303 23.5429L387.467 22.7491C386.779 24.3408 386.441 26.0704 386.441 27.925H388.441ZM389.293 23.5635C389.862 22.3262 390.82 21.3164 392.23 20.5412L391.266 18.7888C389.529 19.7443 388.245 21.0551 387.476 22.7285L389.293 23.5635ZM392.246 20.5319C393.609 19.7483 395.576 19.308 398.238 19.308V17.308C395.393 17.308 393.033 17.7724 391.249 18.7981L392.246 20.5319ZM398.238 19.308H417.826V17.308H398.238V19.308ZM417.826 19.308C420.193 19.308 422.117 19.4443 423.612 19.706L423.957 17.736C422.306 17.4471 420.257 17.308 417.826 17.308V19.308ZM423.616 19.7067C424.406 19.8416 424.939 19.9722 425.255 20.0879C425.419 20.1478 425.464 20.1823 425.449 20.1713C425.439 20.1635 425.384 20.1211 425.328 20.0344C425.266 19.9396 425.204 19.7921 425.204 19.606H427.204C427.204 19.0626 426.854 18.726 426.656 18.576C426.44 18.4127 426.182 18.2972 425.943 18.2096C425.452 18.0303 424.776 17.8757 423.953 17.7353L423.616 19.7067ZM425.232 19.3708L423.462 26.6868L425.406 27.1571L427.176 19.8411L425.232 19.3708ZM424.54 25.9277C423.4 25.8055 421.283 25.6866 418.218 25.5687L418.141 27.5673C421.213 27.6854 423.265 27.8025 424.327 27.9163L424.54 25.9277ZM418.232 25.5693C415.179 25.4108 411.306 25.332 406.616 25.332V27.332C411.287 27.332 415.123 27.4106 418.128 27.5667L418.232 25.5693ZM406.63 25.3321L402.382 25.2731L402.354 27.2729L406.602 27.3319L406.63 25.3321ZM402.368 25.273C401.109 25.273 399.978 25.4448 399.203 25.9818L400.341 27.6262C400.588 27.4552 401.188 27.273 402.368 27.273V25.273ZM399.248 25.9523C398.33 26.5169 397.993 27.5309 397.947 28.5896L399.945 28.6764C399.977 27.9258 400.191 27.7204 400.296 27.6557L399.248 25.9523ZM397.946 28.633V29.046H399.946V28.633H397.946ZM397.946 29.046C397.946 30.1479 398.292 31.1713 399.231 31.7752L400.313 30.0928C400.151 29.9887 399.946 29.7535 399.946 29.046H397.946ZM399.231 31.7752C400.031 32.2892 401.157 32.465 402.427 32.465V30.465C401.258 30.465 400.614 30.2868 400.313 30.0928L399.231 31.7752ZM402.427 32.465H415.407V30.465H402.427V32.465ZM415.407 32.465C417.862 32.465 419.907 32.715 421.56 33.1927L422.115 31.2713C420.229 30.7263 417.986 30.465 415.407 30.465V32.465ZM421.56 33.1927C423.132 33.6468 424.285 34.4642 425.084 35.6295L426.734 34.4985C425.645 32.9105 424.083 31.8398 422.115 31.2713L421.56 33.1927ZM425.092 35.6407C425.864 36.7346 426.325 38.4786 426.325 41.023H428.325C428.325 38.2967 427.842 36.068 426.726 34.4873L425.092 35.6407ZM426.325 41.023V43.147H428.325V41.023H426.325ZM426.325 43.147C426.325 45.9197 425.607 48.0514 424.261 49.6393L425.787 50.9327C427.508 48.9019 428.325 46.2743 428.325 43.147H426.325ZM424.253 49.6491C423.037 51.1208 420.791 52 417.177 52V54C421.036 54 424.021 53.0699 425.795 50.9229L424.253 49.6491ZM417.177 52H395.288V54H417.177V52Z" fill="white" mask="url(#path-1-outside-1_11_60)"/>
</g>
<path d="M302.839 48.0074L302.839 48.0081C303.27 48.6839 303.5 49.4645 303.5 50.2585C303.5 52.5972 301.582 54.5 299.196 54.5H264.804C262.418 54.5 260.5 52.5972 260.5 50.2585C260.5 49.4645 260.73 48.6839 261.161 48.0081L261.161 48.0074L279.775 18.7101L279.776 18.7087C280.249 17.9588 281.093 17.5 282 17.5C282.905 17.5 283.742 17.9569 284.225 18.711C284.226 18.7112 284.226 18.7114 284.226 18.7116L302.839 48.0074ZM287.586 33.7857H288.496L288.008 33.0175L282.422 24.23L282 23.5661L281.578 24.23L274.78 34.926L274.594 35.2197L274.804 35.4967L276.377 37.5663L276.377 37.5671C277.128 38.5504 278.622 38.5504 279.373 37.5671L279.373 37.5665L281.573 34.6741L281.575 34.6716C281.993 34.114 282.66 33.7857 283.375 33.7857H287.586Z" fill="#D54A1E" stroke="white"/>
<defs>
<filter id="filter0_d_11_60" x="0.587158" y="17.249" width="431.738" height="45.341" filterUnits="userSpaceOnUse" color-interpolation-filters="sRGB">
<feFlood flood-opacity="0" result="BackgroundImageFix"/>
<feColorMatrix in="SourceAlpha" type="matrix" values="0 0 0 0 0 0 0 0 0 0 0 0 0 0 0 0 0 0 127 0" result="hardAlpha"/>
<feOffset dy="4"/>
<feGaussianBlur stdDeviation="2"/>
<feComposite in2="hardAlpha" operator="out"/>
<feColorMatrix type="matrix" values="0 0 0 0 0 0 0 0 0 0 0 0 0 0 0 0 0 0 0.25 0"/>
<feBlend mode="normal" in2="BackgroundImageFix" result="effect1_dropShadow_11_60"/>
<feBlend mode="normal" in="SourceGraphic" in2="effect1_dropShadow_11_60" result="shape"/>
</filter>
</defs>
</svg>
